<svg width="651" height="205" viewBox="0 0 651 205" fill="none" xmlns="http://www.w3.org/2000/svg">
<path d="M69.875 130.062H53.0625C52.1875 130.062 51.4583 129.938 50.875 129.688C46.0833 127.021 43.5417 122.688 43.25 116.688C43.25 110.854 46.375 104.896 52.625 98.8125C58.5417 93.0208 62.5625 85.8958 64.6875 77.4375C57.1042 79.8958 48.8958 81.125 40.0625 81.125C31.1042 81.0417 22.8125 79.7708 15.1875 77.3125C17.4792 85.9792 21.5 93.1458 27.25 98.8125C29.7917 101.271 32.0208 104.021 33.9375 107.062C35.7292 110.396 36.625 113.604 36.625 116.688C36.3333 122.688 33.7917 127.021 29 129.688C28.625 129.854 28.2708 129.958 27.9375 130C27.6042 130.042 21.625 130.062 10 130.062C9.04167 130.062 8.125 129.938 7.25 129.688C5.33333 128.729 4.375 127.167 4.375 125V30.9375C4.375 27.9792 6.1875 26.1667 9.8125 25.5C10.2292 25.4167 14.9167 25.375 23.875 25.375C25.4167 25.375 26.8125 25.9792 28.0625 27.1875C29.7292 28.9792 30.5625 31.0833 30.5625 33.5C30.3958 36.9583 29.0208 40.0625 26.4375 42.8125C25.5208 43.9375 24.5625 45 23.5625 46C22.4375 47.1667 21.3542 48.375 20.3125 49.625C16.9792 53.875 15 58.5 14.375 63.5C21 61.625 29.3542 60.5625 39.4375 60.3125C49.9375 60.4792 58.625 61.5208 65.5 63.4375C64.8333 58.4375 62.8542 53.8333 59.5625 49.625C58.5208 48.375 57.4375 47.1667 56.3125 46C55.3125 45 54.3542 43.9375 53.4375 42.8125C50.8542 40.0625 49.4792 36.9583 49.3125 33.5C49.3125 31.0833 50.1667 28.9792 51.875 27.1875C53.125 25.9792 54.5625 25.375 56.1875 25.375C65.0208 25.375 69.6458 25.4167 70.0625 25.5C73.6875 26.1667 75.5 27.9792 75.5 30.9375V125C75.5 127.167 74.5417 128.729 72.625 129.688C71.75 129.938 70.8333 130.062 69.875 130.062ZM85.25 130.062C84 130.062 83.0417 129.562 82.375 128.562C81.9583 127.938 81.75 127.271 81.75 126.562C81.75 126.146 81.8125 125.729 81.9375 125.312L116.625 32.875C117.5 30.5833 118.917 28.7708 120.875 27.4375C122.833 26.0625 125.021 25.375 127.438 25.375C129.854 25.375 132.042 26.0625 134 27.4375C135.958 28.7708 137.375 30.5833 138.25 32.875C161.5 94.875 173.125 126.104 173.125 126.562C173.125 127.271 172.854 128.021 172.312 128.812C171.771 129.562 170.875 129.958 169.625 130C159.667 129.958 149.646 129.854 139.562 129.688C138.271 129.604 137.125 129.146 136.125 128.312C135.333 127.688 134.938 126.792 134.938 125.625C134.938 124.125 135.854 122.458 137.688 120.625C141.688 116.292 143.688 111.25 143.688 105.5V104.562C143.229 100.479 142.188 96.5 140.562 92.625C135.021 77.875 131.729 68.6875 130.688 65.0625C129.688 61.3958 127.938 59.5625 125.438 59.5625C123.896 59.5625 122.562 60.1042 121.438 61.1875C116.688 66.2292 114.312 72.1458 114.312 78.9375C114.312 83.5625 115.562 87.9167 118.062 92L119.312 94C121.646 97.0833 123.25 100.438 124.125 104.062C124.25 104.854 124.312 105.667 124.312 106.5C124.312 110.958 122.521 115.208 118.938 119.25C113.688 125.25 106.562 128.667 97.5625 129.5C93.5208 129.875 89.4167 130.062 85.25 130.062ZM238.562 130.062L221.938 130C219.271 129.917 217.938 128.896 217.938 126.938C217.938 125.812 218.312 124.521 219.062 123.062C219.646 121.688 219.938 120.292 219.938 118.875C219.938 116.083 219.062 113.396 217.312 110.812C215.021 107.771 212.354 105.104 209.312 102.812C205.771 99.9792 202.896 96.9792 200.688 93.8125C200.521 93.6042 200.354 93.3542 200.188 93.0625C197.896 89.4375 195.875 87.5625 194.125 87.4375C192.833 87.5208 192.188 88.4167 192.188 90.125V90.875C192.188 94.75 195.333 99.4375 201.625 104.938C203.5 106.562 205.25 108.312 206.875 110.188C209.917 113.562 211.521 117.438 211.688 121.812C211.646 123.521 211.229 125.292 210.438 127.125C209.646 128.917 208.458 129.896 206.875 130.062L190.438 130L185.188 130.062C184.479 130.062 183.771 129.958 183.062 129.75C181.021 128.75 180 127.188 180 125.062V31.75C180 30.5 180.229 29.5 180.688 28.75C181.771 26.5833 183.312 25.5 185.312 25.5C196.938 25.5 204.771 25.4792 208.812 25.4375C211.812 25.4375 213.958 25.4583 215.25 25.5C218 25.625 220.604 26.0208 223.062 26.6875C232.729 29.7708 240.021 35.75 244.938 44.625C246.979 48.5 248 52.5417 248 56.75C248 60.1667 247.208 63.375 245.625 66.375C242.667 71.4583 238.417 75.1667 232.875 77.5C227.583 79.6667 222.875 80.9792 218.75 81.4375C214.292 81.8125 212.062 83 212.062 85C212.062 86.6667 213.5 88.8333 216.375 91.5C220.042 94.9583 224.562 98.0417 229.938 100.75C234.146 102.833 238.042 105.333 241.625 108.25C244.208 110.5 246.208 113.188 247.625 116.312C248.5 118.396 248.938 120.375 248.938 122.25C248.938 124.208 248.312 126 247.062 127.625C245.979 128.75 244.604 129.438 242.938 129.688C241.312 129.938 239.854 130.062 238.562 130.062ZM211.812 64C216.979 64 221.375 63.3125 225 61.9375C228.667 60.5625 230.5 58.8958 230.5 56.9375C230.5 54.9792 228.667 53.3125 225 51.9375C221.375 50.5625 216.979 49.875 211.812 49.875C206.646 49.875 202.229 50.5625 198.562 51.9375C194.896 53.3125 193.062 54.9792 193.062 56.9375C193.062 58.8958 194.896 60.5625 198.562 61.9375C202.229 63.3125 206.646 64 211.812 64ZM275.562 130.062H263.25C262.125 130.062 261.042 129.958 260 129.75C258.042 129.125 256.667 127.479 255.875 124.812C255.208 122.146 254.875 119.646 254.875 117.312C254.875 111.146 256.229 104.958 258.938 98.75C260.729 94.8333 262.083 90.4583 263 85.625C263.583 82.5 263.896 79.5417 263.938 76.75C263.938 74 263.375 70.4583 262.25 66.125C261.542 63.125 260.438 59.9792 258.938 56.6875C256.229 50.5208 254.875 44.5 254.875 38.625C254.875 36.7083 254.979 35.1875 255.188 34.0625C255.646 31.2708 256 29.75 256.25 29.5L256.562 28.625C257.521 26.4583 259.458 25.375 262.375 25.375H274.625C275.708 25.375 276.792 25.4792 277.875 25.6875C279.042 26.0625 279.958 26.7708 280.625 27.8125C282.167 30.2292 282.958 33.7708 283 38.4375C283 44.5625 281.625 50.6458 278.875 56.6875C277.125 60.7292 275.792 65.1042 274.875 69.8125C274.417 71.8125 274.146 73.8333 274.062 75.875C274.062 76.3333 274.042 76.8333 274 77.375C273.958 77.875 273.938 78.4167 273.938 79L274 80.75C274.792 87.125 276.417 93.125 278.875 98.75C281.625 104.792 283 110.854 283 116.938C283 117.938 282.979 118.792 282.938 119.5C282.896 120.667 282.479 122.771 281.688 125.812C281.604 125.896 281.521 126.125 281.438 126.5C281.396 126.5 281.375 126.521 281.375 126.562C280.5 128.896 278.562 130.062 275.562 130.062ZM343.875 130.062H314.938C314.271 129.896 313.688 129.583 313.188 129.125C311.521 127.417 310.688 124.646 310.688 120.812C310.688 116.062 312.354 111.438 315.688 106.938C316.854 105.188 317.792 103.292 318.5 101.25C320.333 96.2917 321.542 91.1875 322.125 85.9375C322.833 79.1875 323.188 72.4167 323.188 65.625C323.188 63.0417 323.146 60.4792 323.062 57.9375C323.021 56.9792 323 55.8542 323 54.5625C323 52.0208 322.792 49.5833 322.375 47.25C321.958 44.875 320.812 42.75 318.938 40.875C317.896 39.9583 316.771 39.5 315.562 39.5C313.771 39.5 311.729 40.25 309.438 41.75C304.812 44.875 301.75 48.7917 300.25 53.5C299.875 55 299.312 56.4375 298.562 57.8125C297.854 59.1458 296.771 59.8125 295.312 59.8125C294.479 59.8125 293.729 59.5833 293.062 59.125C291.521 58.0833 290.75 56.5208 290.75 54.4375V41.9375L290.812 41.875L290.875 39C290.875 37.5833 290.833 36.1458 290.75 34.6875V29.625C290.917 28.4167 291.458 27.4167 292.375 26.625C293.292 25.7917 294.396 25.375 295.688 25.375H363.125C364.375 25.375 365.458 25.7917 366.375 26.625C367.292 27.4167 367.833 28.4167 368 29.625C368 33 367.979 35.8958 367.938 38.3125C367.979 40.7292 368 46.1042 368 54.4375C368 55.5208 367.729 56.5625 367.188 57.5625C366.271 59.0625 365.021 59.8125 363.438 59.8125C361.979 59.8125 360.875 59.1458 360.125 57.8125C359.417 56.4375 358.875 55 358.5 53.5C357.042 48.8333 354 44.9167 349.375 41.75C347.125 40.25 345.083 39.5 343.25 39.5C342 39.5 340.854 39.9583 339.812 40.875C337.938 42.75 336.792 44.9167 336.375 47.375C335.958 49.625 335.75 51.875 335.75 54.125L335.688 59.875C335.562 62.6667 335.5 65.4375 335.5 68.1875C335.5 74.5625 335.833 80.9167 336.5 87.25C337.458 95.5833 339.708 102.688 343.25 108.562C345.958 112.729 347.333 116.958 347.375 121.25C347.375 126.542 346.208 129.479 343.875 130.062ZM442.25 130.062H425.438C424.562 130.062 423.833 129.938 423.25 129.688C418.458 127.021 415.917 122.688 415.625 116.688C415.625 110.854 418.75 104.896 425 98.8125C430.917 93.0208 434.938 85.8958 437.062 77.4375C429.479 79.8958 421.271 81.125 412.438 81.125C403.479 81.0417 395.188 79.7708 387.562 77.3125C389.854 85.9792 393.875 93.1458 399.625 98.8125C402.167 101.271 404.396 104.021 406.312 107.062C408.104 110.396 409 113.604 409 116.688C408.708 122.688 406.167 127.021 401.375 129.688C401 129.854 400.646 129.958 400.312 130C399.979 130.042 394 130.062 382.375 130.062C381.417 130.062 380.5 129.938 379.625 129.688C377.708 128.729 376.75 127.167 376.75 125V30.9375C376.75 27.9792 378.562 26.1667 382.188 25.5C382.604 25.4167 387.292 25.375 396.25 25.375C397.792 25.375 399.188 25.9792 400.438 27.1875C402.104 28.9792 402.938 31.0833 402.938 33.5C402.771 36.9583 401.396 40.0625 398.812 42.8125C397.896 43.9375 396.938 45 395.938 46C394.812 47.1667 393.729 48.375 392.688 49.625C389.354 53.875 387.375 58.5 386.75 63.5C393.375 61.625 401.729 60.5625 411.812 60.3125C422.312 60.4792 431 61.5208 437.875 63.4375C437.208 58.4375 435.229 53.8333 431.938 49.625C430.896 48.375 429.812 47.1667 428.688 46C427.688 45 426.729 43.9375 425.812 42.8125C423.229 40.0625 421.854 36.9583 421.688 33.5C421.688 31.0833 422.542 28.9792 424.25 27.1875C425.5 25.9792 426.938 25.375 428.562 25.375C437.396 25.375 442.021 25.4167 442.438 25.5C446.062 26.1667 447.875 27.9792 447.875 30.9375V125C447.875 127.167 446.917 128.729 445 129.688C444.125 129.938 443.208 130.062 442.25 130.062ZM457.625 130.062C456.375 130.062 455.417 129.562 454.75 128.562C454.333 127.938 454.125 127.271 454.125 126.562C454.125 126.146 454.188 125.729 454.312 125.312L489 32.875C489.875 30.5833 491.292 28.7708 493.25 27.4375C495.208 26.0625 497.396 25.375 499.812 25.375C502.229 25.375 504.417 26.0625 506.375 27.4375C508.333 28.7708 509.75 30.5833 510.625 32.875C533.875 94.875 545.5 126.104 545.5 126.562C545.5 127.271 545.229 128.021 544.688 128.812C544.146 129.562 543.25 129.958 542 130C532.042 129.958 522.021 129.854 511.938 129.688C510.646 129.604 509.5 129.146 508.5 128.312C507.708 127.688 507.312 126.792 507.312 125.625C507.312 124.125 508.229 122.458 510.062 120.625C514.062 116.292 516.062 111.25 516.062 105.5V104.562C515.604 100.479 514.562 96.5 512.938 92.625C507.396 77.875 504.104 68.6875 503.062 65.0625C502.062 61.3958 500.312 59.5625 497.812 59.5625C496.271 59.5625 494.938 60.1042 493.812 61.1875C489.062 66.2292 486.688 72.1458 486.688 78.9375C486.688 83.5625 487.938 87.9167 490.438 92L491.688 94C494.021 97.0833 495.625 100.438 496.5 104.062C496.625 104.854 496.688 105.667 496.688 106.5C496.688 110.958 494.896 115.208 491.312 119.25C486.062 125.25 478.938 128.667 469.938 129.5C465.896 129.875 461.792 130.062 457.625 130.062ZM639.75 130H622.062C621.062 130 620.292 129.854 619.75 129.562C614.625 126.896 611.917 122.604 611.625 116.688C611.625 110.896 614.938 104.938 621.562 98.8125C627.188 93.7292 631.208 87.3958 633.625 79.8125C634.042 78.4792 634.25 77.7708 634.25 77.6875C634.25 77.5625 634.271 77.4792 634.312 77.4375C635.104 74.7708 635.5 71.6667 635.5 68.125C635.5 67.25 635.438 66.3125 635.312 65.3125C635.229 64.2708 635.167 63.7292 635.125 63.6875C634.625 59.3125 633.25 55.9583 631 53.625C630.208 52.8333 629.25 52.3958 628.125 52.3125C624.833 52.6875 622.229 56.375 620.312 63.375C619.104 66.5417 617.812 71.1458 616.438 77.1875C613.729 89.7708 610.021 99.2083 605.312 105.5C603.688 107.708 601.583 109.021 599 109.438C596.458 109.021 594.375 107.729 592.75 105.562C591.125 103.354 589.792 101.104 588.75 98.8125C586.125 93.5625 584.104 87.875 582.688 81.75L581.562 77.1875C580.104 70.8542 578.833 66.25 577.75 63.375C575.833 56.375 573.229 52.6875 569.938 52.3125C568.812 52.3958 567.854 52.8333 567.062 53.625C564.062 56.7083 562.562 61.7292 562.562 68.6875C562.562 72.1458 563.188 75.8542 564.438 79.8125C566.854 87.3958 570.875 93.7292 576.5 98.8125C583.083 104.854 586.375 110.812 586.375 116.688C586.083 122.604 583.396 126.896 578.312 129.562C577.896 129.771 577.521 129.896 577.188 129.938C576.854 129.979 570.542 130 558.25 130C557.25 130 556.292 129.875 555.375 129.625C553.375 128.625 552.375 127.062 552.375 124.938V31.1875C552.375 29.4792 552.979 28.1667 554.188 27.25C555.396 26.3333 556.917 25.8125 558.75 25.6875C560.583 25.5625 564.854 25.4792 571.562 25.4375C573.729 25.4375 575.833 25.7917 577.875 26.5C580.833 27.9583 583.188 30.1458 584.938 33.0625C586.938 36.3542 588.333 39.8958 589.125 43.6875C589.917 47.4375 590.5 51.2708 590.875 55.1875C591.25 58.6042 591.729 61.9792 592.312 65.3125C592.938 68.6042 593.958 71.7708 595.375 74.8125C596.417 77.1458 597.625 78.7708 599 79.6875C599.833 79.1458 600.562 78.375 601.188 77.375C601.854 76.3333 602.354 75.4792 602.688 74.8125C604.062 71.7708 605.062 68.6042 605.688 65.3125C606.312 61.9792 606.792 58.625 607.125 55.25C607.542 51.2917 608.146 47.4375 608.938 43.6875C609.729 39.8958 611.125 36.3542 613.125 33.0625C614.833 30.1458 617.188 27.9583 620.188 26.5C622.396 25.7083 624.708 25.3125 627.125 25.3125C627.625 25.3125 628.146 25.3333 628.688 25.375C629.229 25.4167 630.021 25.4375 631.062 25.4375C633.979 25.4375 636.729 25.5208 639.312 25.6875C641.146 25.8125 642.667 26.3333 643.875 27.25C645.083 28.1667 645.688 29.4792 645.688 31.1875V124.938C645.688 127.062 644.667 128.625 642.625 129.625C641.75 129.875 640.792 130 639.75 130Z" fill="#9D6745"/>
<path d="M444.523 191C440.441 191 437.004 189.799 434.211 187.396C432.551 185.912 431.438 184.379 430.871 182.797C430.324 181.215 430.051 179.916 430.051 178.9C430.051 177.768 430.275 176.635 430.725 175.502C431.447 173.979 432.492 172.816 433.859 172.016C435.227 171.195 436.633 170.785 438.078 170.785C439.895 170.785 441.486 171.449 442.854 172.777C444.104 174.184 444.729 175.736 444.729 177.436C444.729 178.373 444.611 179.145 444.377 179.75C444.221 180.141 444.143 180.541 444.143 180.951C444.143 181.498 444.396 181.947 444.904 182.299C445.607 182.787 446.643 183.031 448.01 183.031C449.943 183.031 451.682 182.338 453.225 180.951C454.572 179.506 455.246 177.973 455.246 176.352C455.246 175.902 455.197 175.443 455.1 174.975C454.592 172.865 453.254 171.244 451.086 170.111C449.465 169.428 447.775 168.988 446.018 168.793C442.229 168.324 438.674 166.928 435.354 164.604C433.752 163.432 432.482 162.025 431.545 160.385C430.607 158.744 430.139 156.928 430.139 154.936C430.139 152.025 431.35 149.232 433.771 146.557C436.682 143.49 440.627 141.957 445.607 141.957C447.6 141.957 449.768 142.318 452.111 143.041C454.338 143.725 456.105 144.066 457.414 144.066C458.469 144.066 459.328 143.939 459.992 143.686C460.656 143.432 461.203 143.305 461.633 143.305C462.004 143.305 462.346 143.432 462.658 143.686C462.971 143.92 463.156 144.223 463.215 144.594C463.293 144.965 463.332 145.297 463.332 145.59C463.332 147.484 462.961 149.398 462.219 151.332C461.496 153.07 460.51 154.32 459.26 155.082C458.029 155.844 456.857 156.225 455.744 156.225C455.1 156.225 454.436 156.127 453.752 155.932C452.346 155.365 450.783 154.369 449.064 152.943C447.814 151.947 446.535 151.049 445.227 150.248C443.938 149.447 442.961 149.027 442.297 148.988C441.633 148.949 441.262 148.93 441.184 148.93C440.012 148.93 438.898 149.477 437.844 150.57C437.062 151.508 436.672 152.533 436.672 153.646C436.672 154.076 436.73 154.525 436.848 154.994C437.434 156.518 438.566 157.621 440.246 158.305C441.945 158.988 443.586 159.477 445.168 159.77C445.363 159.809 445.559 159.857 445.754 159.916C445.969 159.955 446.193 159.994 446.428 160.033C448.088 160.385 449.738 160.785 451.379 161.234C454.699 162.172 457.443 163.969 459.611 166.625C461.779 169.398 462.863 172.455 462.863 175.795C462.863 176.869 462.736 177.943 462.482 179.018C461.486 182.611 459.396 185.453 456.213 187.543C452.678 189.848 448.781 191 444.523 191ZM491.75 191.029H478.186C477.873 190.951 477.6 190.805 477.365 190.59C476.584 189.789 476.193 188.49 476.193 186.693C476.193 184.467 476.975 182.299 478.537 180.189C479.084 179.369 479.523 178.48 479.855 177.523C480.715 175.199 481.281 172.807 481.555 170.346C481.887 167.182 482.053 164.008 482.053 160.824C482.053 159.613 482.033 158.412 481.994 157.221C481.975 156.771 481.965 156.244 481.965 155.639C481.965 154.447 481.867 153.305 481.672 152.211C481.477 151.098 480.939 150.102 480.061 149.223C479.572 148.793 479.045 148.578 478.479 148.578C477.639 148.578 476.682 148.93 475.607 149.633C473.439 151.098 472.004 152.934 471.301 155.141C471.125 155.844 470.861 156.518 470.51 157.162C470.178 157.787 469.67 158.1 468.986 158.1C468.596 158.1 468.244 157.992 467.932 157.777C467.209 157.289 466.848 156.557 466.848 155.58V149.721L466.877 149.691L466.906 148.344C466.906 147.68 466.887 147.006 466.848 146.322V143.949C466.926 143.383 467.18 142.914 467.609 142.543C468.039 142.152 468.557 141.957 469.162 141.957H500.773C501.359 141.957 501.867 142.152 502.297 142.543C502.727 142.914 502.98 143.383 503.059 143.949C503.059 145.531 503.049 146.889 503.029 148.021C503.049 149.154 503.059 151.674 503.059 155.58C503.059 156.088 502.932 156.576 502.678 157.045C502.248 157.748 501.662 158.1 500.92 158.1C500.236 158.1 499.719 157.787 499.367 157.162C499.035 156.518 498.781 155.844 498.605 155.141C497.922 152.953 496.496 151.117 494.328 149.633C493.273 148.93 492.316 148.578 491.457 148.578C490.871 148.578 490.334 148.793 489.846 149.223C488.967 150.102 488.43 151.117 488.234 152.27C488.039 153.324 487.941 154.379 487.941 155.434L487.912 158.129C487.854 159.438 487.824 160.736 487.824 162.025C487.824 165.014 487.98 167.992 488.293 170.961C488.742 174.867 489.797 178.197 491.457 180.951C492.727 182.904 493.371 184.887 493.391 186.898C493.391 189.379 492.844 190.756 491.75 191.029ZM523.918 191.029C519.172 191.029 515.139 189.613 511.818 186.781C508.518 183.949 506.867 180.531 506.867 176.527C506.867 172.758 506.906 168.979 506.984 165.189C507.062 161.908 507.102 158.627 507.102 155.346C507.102 151.674 507.053 148.012 506.955 144.359C506.955 143.48 507.375 142.787 508.215 142.279C508.508 142.064 509.162 141.957 510.178 141.957C513.889 141.957 516.027 141.967 516.594 141.986C517.492 142.006 518.361 142.143 519.201 142.396C520.627 142.807 521.662 143.822 522.307 145.443C522.873 146.83 523.156 148.236 523.156 149.662C523.156 150.873 522.951 152.084 522.541 153.295C521.291 156.654 519.465 159.682 517.062 162.377C515.578 164.154 514.504 166.195 513.84 168.5C513.43 169.945 513.225 171.391 513.225 172.836C513.225 173.676 513.361 174.887 513.635 176.469C513.908 178.031 514.904 179.711 516.623 181.508C518.146 182.934 519.875 183.646 521.809 183.646C523.664 183.646 525.383 183.119 526.965 182.064C528.547 180.99 529.631 179.535 530.217 177.699C530.568 176.117 530.744 174.525 530.744 172.924C530.744 171.947 530.549 165.326 530.158 153.061V144.418C530.158 143.832 530.334 143.324 530.686 142.895C531.057 142.465 531.516 142.191 532.062 142.074C532.102 142.055 532.141 142.045 532.18 142.045C532.219 142.045 532.268 142.035 532.326 142.016C532.502 141.977 533.332 141.957 534.816 141.957C536.145 141.957 536.857 141.967 536.955 141.986C537.072 141.986 537.521 141.986 538.303 141.986C538.635 141.986 538.82 142.006 538.859 142.045C538.938 142.045 539.006 142.055 539.064 142.074C539.631 142.191 540.08 142.465 540.412 142.895C540.764 143.324 540.949 143.832 540.969 144.418V176.586C540.969 180.531 539.309 183.93 535.988 186.781C532.668 189.613 528.645 191.029 523.918 191.029ZM558.283 191.029H547.561C546.877 191.029 546.291 190.785 545.803 190.297C545.314 189.809 545.07 189.213 545.07 188.51V144.477C545.07 143.773 545.314 143.178 545.803 142.689C546.291 142.201 546.877 141.957 547.561 141.957H562.736C568.283 142.523 573.029 144.867 576.975 148.988C581.545 153.754 583.83 159.535 583.83 166.332C583.83 173.129 581.545 178.92 576.975 183.705C573.635 187.201 569.465 189.477 564.465 190.531C562.941 190.863 560.881 191.029 558.283 191.029ZM556.291 182.797C558.322 182.797 560.441 182.66 562.648 182.387C564.875 182.113 567.16 181.205 569.504 179.662C571.105 178.568 572.443 177.123 573.518 175.326C574.318 173.979 574.719 172.68 574.719 171.43C574.719 169.672 574.113 168.139 572.902 166.83C571.984 165.971 570.959 165.248 569.826 164.662C569.025 164.232 568.273 163.764 567.57 163.256C566.887 162.729 566.34 162.074 565.93 161.293C565.48 160.199 565.256 159.057 565.256 157.865C565.256 157.533 565.266 157.211 565.285 156.898C565.324 156.586 565.344 156.283 565.344 155.99C565.344 155.443 565.305 154.838 565.227 154.174C565.168 153.49 564.934 152.797 564.523 152.094C563.527 150.59 561.965 149.838 559.836 149.838C555.832 150.033 553.029 151.879 551.428 155.375C550.764 156.918 550.432 158.451 550.432 159.975C550.432 161.615 550.812 163.246 551.574 164.867C552.238 166 553.039 167.045 553.977 168.002C555.168 169.232 555.979 170.297 556.408 171.195C557.209 172.68 557.609 174.271 557.609 175.971C557.609 177.807 557.102 179.555 556.086 181.215C555.637 182.016 555.07 182.533 554.387 182.768L556.291 182.797ZM594.904 191.029H589.133C588.605 191.029 588.098 190.98 587.609 190.883C586.691 190.59 586.047 189.818 585.676 188.568C585.363 187.318 585.207 186.146 585.207 185.053C585.207 182.162 585.842 179.262 587.111 176.352C587.951 174.516 588.586 172.465 589.016 170.199C589.289 168.734 589.436 167.348 589.455 166.039C589.455 164.75 589.191 163.09 588.664 161.059C588.332 159.652 587.814 158.178 587.111 156.635C585.842 153.744 585.207 150.922 585.207 148.168C585.207 147.27 585.256 146.557 585.354 146.029C585.568 144.721 585.734 144.008 585.852 143.891L585.998 143.48C586.447 142.465 587.355 141.957 588.723 141.957H594.465C594.973 141.957 595.48 142.006 595.988 142.104C596.535 142.279 596.965 142.611 597.277 143.1C598 144.232 598.371 145.893 598.391 148.08C598.391 150.951 597.746 153.803 596.457 156.635C595.637 158.529 595.012 160.58 594.582 162.787C594.367 163.725 594.24 164.672 594.201 165.629C594.201 165.844 594.191 166.078 594.172 166.332C594.152 166.566 594.143 166.82 594.143 167.094L594.172 167.914C594.543 170.902 595.305 173.715 596.457 176.352C597.746 179.184 598.391 182.025 598.391 184.877C598.391 185.346 598.381 185.746 598.361 186.078C598.342 186.625 598.146 187.611 597.775 189.037C597.736 189.076 597.697 189.184 597.658 189.359C597.639 189.359 597.629 189.369 597.629 189.389C597.219 190.482 596.311 191.029 594.904 191.029ZM621.066 191.059C615.324 191.059 610.471 188.637 606.506 183.793C602.561 178.949 600.588 173.188 600.588 166.508C600.588 159.828 602.561 154.066 606.506 149.223C610.471 144.379 615.324 141.957 621.066 141.957C626.789 141.957 631.633 144.379 635.598 149.223C639.582 154.066 641.574 159.828 641.574 166.508C641.574 173.188 639.582 178.949 635.598 183.793C631.633 188.637 626.789 191.059 621.066 191.059ZM621.066 184.818C622.746 184.818 624.26 183.998 625.607 182.357C626.975 180.697 628.068 178.49 628.889 175.736C629.709 172.963 630.119 169.887 630.119 166.508C630.119 163.148 629.709 160.082 628.889 157.309C628.068 154.535 626.975 152.328 625.607 150.688C624.26 149.027 622.746 148.197 621.066 148.197C619.406 148.197 617.893 149.027 616.525 150.688C615.158 152.328 614.064 154.535 613.244 157.309C612.443 160.082 612.043 163.148 612.043 166.508C612.043 169.887 612.443 172.963 613.244 175.736C614.064 178.49 615.158 180.697 616.525 182.357C617.893 183.998 619.406 184.818 621.066 184.818Z" fill="#9D6745" fill-opacity="0.7"/>
</svg>
