<svg width="510" height="196" viewBox="0 0 510 196" fill="none" xmlns="http://www.w3.org/2000/svg">
<path d="M69.632 31.96V119H47.872V85.336H21.76V119H0V31.96H21.76V52.056C21.76 65.112 21.76 63.448 13.696 71.512L16 73.816C24.064 65.752 22.4 65.752 35.456 65.752H47.872V31.96H69.632ZM107.548 51.672C127.516 51.672 136.604 60.376 136.604 76.12V119H114.844C114.844 115.928 119.58 111.448 122.524 108.888L119.964 106.84L115.868 111.704C111.516 116.952 104.988 120.152 98.204 120.152H98.076C83.1 120.152 73.5 112.6 73.5 97.368C73.5 82.008 83.1 74.456 98.076 74.456C105.628 74.456 111.004 76.504 114.844 79.192V78.296C114.844 73.048 109.34 71 102.172 71C95.516 71 87.58 72.792 81.308 75.736L74.652 58.072C74.652 58.072 89.116 51.672 107.548 51.672ZM104.604 103.768C109.852 103.768 114.844 100.952 114.844 97.368C114.844 93.656 109.852 90.84 104.604 90.84C97.692 90.84 95.004 94.808 95.004 97.368C95.004 99.8 97.692 103.768 104.604 103.768ZM181.844 77.144C181.844 77.144 176.724 71.256 171.092 71.256C167.892 71.256 165.716 72.792 164.308 75.48C162.9 78.04 162.26 81.752 162.26 85.848V119H140.5V52.696H162.26C162.26 55.256 161.876 57.816 161.108 60.248L157.78 70.488L160.852 71.512L163.924 62.168C165.972 56.024 171.476 51.672 177.876 51.672H178.132C188.372 51.672 194.9 58.712 194.9 58.712L181.844 77.144ZM198.75 119V52.696H220.51V119H198.75ZM209.63 47.32C203.614 47.32 198.75 42.456 198.75 36.44C198.75 30.424 203.614 25.56 209.63 25.56C215.646 25.56 220.51 30.424 220.51 36.44C220.51 42.456 215.646 47.32 209.63 47.32ZM254.839 72.28V90.84C254.839 99.288 259.703 99.544 267.639 99.544H269.047V119C248.311 119 233.079 117.976 233.079 90.84V72.28H224.375V52.696H233.079V35.288H254.839V39C254.839 49.24 254.839 50.392 246.775 58.456L249.079 60.76C257.143 52.696 258.423 52.696 268.535 52.696H269.047V72.28H254.839ZM335.979 119H314.219V80.472C314.219 74.072 310.379 71.256 305.515 71.256C301.547 71.256 298.859 73.048 297.195 75.736C295.403 78.424 294.635 82.136 294.635 85.848V119H272.875V25.56H294.635V49.88C294.635 57.048 294.123 57.432 288.363 67.544L291.179 69.08L294.891 62.552C298.731 55.896 305.771 51.672 313.451 51.672H313.707C321.515 51.672 327.019 54.232 330.731 58.456C334.315 62.68 335.979 68.568 335.979 74.968V119ZM373.923 51.672C393.891 51.672 402.979 60.376 402.979 76.12V119H381.219C381.219 115.928 385.955 111.448 388.899 108.888L386.339 106.84L382.243 111.704C377.891 116.952 371.363 120.152 364.579 120.152H364.451C349.475 120.152 339.875 112.6 339.875 97.368C339.875 82.008 349.475 74.456 364.451 74.456C372.003 74.456 377.379 76.504 381.219 79.192V78.296C381.219 73.048 375.715 71 368.547 71C361.891 71 353.955 72.792 347.683 75.736L341.027 58.072C341.027 58.072 355.491 51.672 373.923 51.672ZM370.979 103.768C376.227 103.768 381.219 100.952 381.219 97.368C381.219 93.656 376.227 90.84 370.979 90.84C364.067 90.84 361.379 94.808 361.379 97.368C361.379 99.8 364.067 103.768 370.979 103.768ZM502.491 119H480.731V80.472C480.731 74.712 479.195 71.256 474.203 71.256C471.131 71.256 468.955 73.048 467.547 75.736C466.139 78.424 465.499 82.136 465.499 85.848V119H443.739V80.472C443.739 74.712 442.203 71.256 437.339 71.256C431.067 71.256 428.635 78.296 428.507 85.848V119H406.875V52.696H428.507C428.507 57.048 427.867 57.816 426.587 60.12L422.235 67.544L425.051 69.208L429.915 60.888C433.115 55.256 439.003 51.672 445.531 51.672H445.659C454.235 51.672 460.507 55.896 463.579 62.68C467.419 56.664 473.307 51.672 482.651 51.672C494.939 51.672 502.491 60.248 502.491 72.792V119Z" fill="#9D6745"/>
<path d="M316.24 145.96C316.24 151.6 340.18 150.04 340.18 163.3C340.18 170.98 332.44 175.54 322.84 175.54C309.34 175.54 304 166.36 304 166.36L312.88 161.26C312.88 161.26 316.6 166.36 323.32 166.36C326.92 166.36 328.96 164.86 328.96 163.3C328.96 158.38 305.02 160.06 305.02 145.96C305.02 138.22 312.22 133.72 321.82 133.72C334.9 133.72 339.64 142.84 339.64 142.84L330.76 148C330.76 148 326.74 142.9 321.34 142.9C318.34 142.9 316.24 144.28 316.24 145.96ZM373.671 134.2V143.38H362.451V175H352.251V149.86C352.251 143.68 352.251 144.46 356.031 140.68L354.951 139.6C351.171 143.38 351.951 143.38 345.831 143.38H341.031V134.2H373.671ZM396.904 160.24V134.2H407.104V160.24C407.104 168.94 400.864 175.54 391.324 175.54C381.724 175.54 375.484 168.94 375.484 160.24V134.2H385.684V160.24C385.684 163.36 387.544 166.36 391.324 166.36C395.044 166.36 396.904 163.36 396.904 160.24ZM435.583 140.2C439.243 143.86 441.523 148.96 441.523 154.6C441.523 165.88 432.403 175 421.123 175H408.883V134.2H421.123C426.763 134.2 431.863 136.48 435.583 140.2ZM415.303 168.52L416.383 169.6C419.083 166.9 418.903 166.84 423.643 165.28C428.143 163.78 431.323 159.58 431.323 154.6V154.18C431.083 148.12 425.923 143.38 419.863 143.38H419.083V159.4C419.083 165.52 419.083 164.74 415.303 168.52ZM443.336 175V134.2H453.536V175H443.336ZM476.288 133.72C487.808 133.72 497.168 143.08 497.168 154.6C497.168 166.18 487.808 175.54 476.288 175.54C464.708 175.54 455.348 166.18 455.348 154.6C455.348 143.08 464.708 133.72 476.288 133.72ZM476.288 165.34C482.168 165.34 486.968 160.54 486.968 154.6C486.968 148.72 482.168 143.92 476.288 143.92C470.348 143.92 465.548 148.72 465.548 154.6C465.548 160.54 470.348 165.34 476.288 165.34Z" fill="#9D6745" fill-opacity="0.7"/>
</svg>
